<?xml version="1.0" encoding="UTF-8" standalone="no"?>
<svg
   width="800"
   height="800"
   version="1.1"
   viewBox="0 0 800.00001 800.00001"
   id="svg1"
   sodipodi:docname="ModIcon.svg"
   inkscape:version="1.4.2 (f4327f4, 2025-05-13)"
   inkscape:export-filename="ModIcon.png"
   inkscape:export-xdpi="96"
   inkscape:export-ydpi="96"
   xmlns:inkscape="http://www.inkscape.org/namespaces/inkscape"
   xmlns:sodipodi="http://sodipodi.sourceforge.net/DTD/sodipodi-0.dtd"
   xmlns="http://www.w3.org/2000/svg"
   xmlns:svg="http://www.w3.org/2000/svg">
  <defs
     id="defs1">
    <marker
       style="overflow:visible"
       id="Triangle"
       refX="0"
       refY="0"
       orient="auto-start-reverse"
       inkscape:stockid="Triangle arrow"
       markerWidth="1"
       markerHeight="1"
       viewBox="0 0 1 1"
       inkscape:isstock="true"
       inkscape:collect="always"
       preserveAspectRatio="xMidYMid">
      <path
         transform="scale(0.5)"
         style="fill:context-stroke;fill-rule:evenodd;stroke:context-stroke;stroke-width:1pt"
         d="M 5.77,0 -2.88,5 V -5 Z"
         id="path135" />
    </marker>
    <marker
       style="overflow:visible"
       id="Triangle-4"
       refX="0"
       refY="0"
       orient="auto-start-reverse"
       inkscape:stockid="Triangle arrow"
       markerWidth="1"
       markerHeight="1"
       viewBox="0 0 1 1"
       inkscape:isstock="true"
       inkscape:collect="always"
       preserveAspectRatio="xMidYMid">
      <path
         transform="scale(0.5)"
         style="fill:context-stroke;fill-rule:evenodd;stroke:context-stroke;stroke-width:1pt"
         d="M 5.77,0 -2.88,5 V -5 Z"
         id="path135-8" />
    </marker>
    <marker
       style="overflow:visible"
       id="Triangle-4-1"
       refX="0"
       refY="0"
       orient="auto-start-reverse"
       inkscape:stockid="Triangle arrow"
       markerWidth="1"
       markerHeight="1"
       viewBox="0 0 1 1"
       inkscape:isstock="true"
       inkscape:collect="always"
       preserveAspectRatio="xMidYMid">
      <path
         transform="scale(0.5)"
         style="fill:context-stroke;fill-rule:evenodd;stroke:context-stroke;stroke-width:1pt"
         d="M 5.77,0 -2.88,5 V -5 Z"
         id="path135-8-7" />
    </marker>
  </defs>
  <sodipodi:namedview
     id="namedview1"
     pagecolor="#ffffff"
     bordercolor="#000000"
     borderopacity="0.25"
     inkscape:showpageshadow="2"
     inkscape:pageopacity="0.0"
     inkscape:pagecheckerboard="0"
     inkscape:deskcolor="#d1d1d1"
     inkscape:zoom="0.52900426"
     inkscape:cx="-74.668586"
     inkscape:cy="188.08922"
     inkscape:window-width="2560"
     inkscape:window-height="1377"
     inkscape:window-x="-8"
     inkscape:window-y="-8"
     inkscape:window-maximized="1"
     inkscape:current-layer="svg1" />
  <g
     transform="translate(0 -252.36)"
     fill="#404040"
     id="g1"
     style="fill:#171717;fill-opacity:1">
    <path
       transform="translate(0 252.36)"
       d="m399.29 132.86a265.71 265.71 0 0 0 -265.72 265.71 265.71 265.71 0 0 0 265.72 265.72 265.71 265.71 0 0 0 265.71 -265.72 265.71 265.71 0 0 0 -265.71 -265.71zm2.37 46.09c12.66 0 22.86 13.08 22.86 29.33v157.81c0 1.24-0.07 2.46-0.18 3.66a37.857 37.857 0 0 1 12.38 17.98l105.57 60.95c12.96 7.48 18.29 22.33 11.96 33.3-6.34 10.96-21.86 13.77-34.81 6.29l-98.62-56.93a37.857 37.857 0 0 1 -20.11 5.8 37.857 37.857 0 0 1 -37.85 -37.85 37.857 37.857 0 0 1 16.02 -30.87c-0.05-0.77-0.08-1.55-0.08-2.33v-157.81c0-16.25 10.2-29.33 22.86-29.33z"
       color="#000000"
       color-rendering="auto"
       fill="#404040"
       image-rendering="auto"
       shape-rendering="auto"
       solid-color="#000000"
       style="isolation:auto;mix-blend-mode:normal;fill:#171717;fill-opacity:1"
       id="path1" />
  </g>
  <path
     style="fill:#171717;fill-opacity:1;stroke:#00ff05;stroke-width:42.0452;stroke-linecap:round;stroke-linejoin:round;stroke-dasharray:none;stroke-dashoffset:1.13386;stroke-opacity:1;marker-start:url(#Triangle)"
     d="m 624.22724,176.44111 v 334.9992"
     id="path2" />
  <path
     style="fill:#171717;fill-opacity:1;stroke:#00ff05;stroke-width:42.0452;stroke-linecap:round;stroke-linejoin:round;stroke-dasharray:none;stroke-dashoffset:1.13386;stroke-opacity:1;marker-start:url(#Triangle-4)"
     d="m 624.22724,239.88293 v 334.9992"
     id="path2-4" />
  <path
     style="fill:#171717;fill-opacity:1;stroke:#00ff05;stroke-width:42.0452;stroke-linecap:round;stroke-linejoin:round;stroke-dasharray:none;stroke-dashoffset:1.13386;stroke-opacity:1;marker-start:url(#Triangle-4-1)"
     d="m 624.22724,301.94809 v 334.9992"
     id="path2-4-5" />
  <path
     style="fill:#171717;fill-opacity:1;stroke:#00ff05;stroke-width:100;stroke-linecap:round;stroke-linejoin:round;stroke-dasharray:none;stroke-dashoffset:1.13386;stroke-opacity:1"
     d="M 624.22724,636.94729 V 324.81203"
     id="path3" />
</svg>
